<svg viewBox="0 0 24 24" fill="none" xmlns="http://www.w3.org/2000/svg">
<g clip-path="url(#clip0_1_1748)">
<g clip-path="url(#clip1_1_1748)">
<path fill-rule="evenodd" clip-rule="evenodd" d="M-4.36353 -0.27272H42.2728V1.61933H-4.36353V-0.27272ZM-4.36353 3.50626H42.2728V5.3983H-4.36353V3.50626ZM-4.36353 7.28012H42.2728V9.17217H-4.36353V7.28012ZM-4.36353 11.054H42.2728V12.946H-4.36353V11.054ZM-4.36353 14.8381H42.2728V16.7199H-4.36353V14.8381ZM-4.36353 18.6068H42.2728V20.4989H-4.36353V18.6068ZM-4.36353 22.3807H42.2728V24.2727H-4.36353V22.3807Z" fill="#BD3D44"/>
<path fill-rule="evenodd" clip-rule="evenodd" d="M-4.36353 1.61932H42.2728V3.50626H-4.36353V1.61932ZM-4.36353 5.39319H42.2728V7.28012H-4.36353V5.39319ZM-4.36353 9.16705H42.2728V11.0591H-4.36353V9.16705ZM-4.36353 12.946H42.2728V14.8381H-4.36353V12.946ZM-4.36353 16.7199H42.2728V18.6119H-4.36353V16.7199ZM-4.36353 20.4938H42.2728V22.3858H-4.36353V20.4938Z" fill="white"/>
<path fill-rule="evenodd" clip-rule="evenodd" d="M-4.36353 -0.27272H14.291V12.946H-4.36353V-0.27272Z" fill="#192F5D"/>
<path fill-rule="evenodd" clip-rule="evenodd" d="M-2.80901 0.28978L-2.63514 0.816484H-2.0931L-2.53287 1.13864L-2.36412 1.66535L-2.80901 1.33808L-3.24878 1.66023L-3.08514 1.13864L-3.53003 0.816484H-2.97264L-2.80901 0.28978ZM0.300084 0.28978L0.468834 0.816484H1.02111L0.576221 1.13864L0.739857 1.66535L0.300084 1.33808L-0.144802 1.66023L0.0239477 1.13864L-0.415825 0.816484H0.12622L0.300084 0.28978ZM3.40917 0.28978L3.57792 0.816484H4.12508L3.68531 1.13864L3.85406 1.66535L3.40917 1.33808L2.96429 1.66023L3.13304 1.13864L2.68815 0.816484H3.24042L3.40917 0.28978ZM6.51827 0.28978L6.68702 0.816484H7.23929L6.7944 1.13864L6.96315 1.66535L6.51827 1.33808L6.07338 1.66023L6.24724 1.13864L5.79724 0.816484H6.3444L6.51827 0.28978ZM9.62736 0.28978L9.79611 0.816484H10.3433L9.90349 1.13864L10.0722 1.66535L9.62736 1.33808L9.18247 1.66023L9.35122 1.13864L8.91145 0.816484H9.4586L9.62736 0.28978ZM12.7364 0.28978L12.9052 0.816484H13.4575L13.0075 1.13864L13.1813 1.66535L12.7364 1.33808L12.2916 1.66023L12.4654 1.13864L12.0154 0.816484H12.5677L12.7364 0.28978ZM-1.25446 1.61933L-1.08571 2.14092H-0.528325L-0.973211 2.45796L-0.809575 2.98467L-1.24423 2.66251L-1.68912 2.98467L-1.5306 2.45796L-1.96014 2.14092H-1.41298L-1.25446 1.61933ZM1.85463 1.61933L2.02849 2.14092H2.57565L2.12565 2.45796L2.29952 2.98467L1.85463 2.66251L1.40974 2.98467L1.57849 2.45796L1.13361 2.14092H1.68588L1.85463 1.61933ZM4.96372 1.61933L5.13247 2.14092H5.68474L5.23986 2.45796L5.40861 2.98467L4.96372 2.66251L4.51883 2.98467L4.68758 2.45796L4.24781 2.14092H4.78986L4.96372 1.61933ZM8.07281 1.61933L8.24667 2.14092H8.79383L8.34383 2.45796L8.5177 2.98467L8.07281 2.66251L7.63304 2.98467L7.79667 2.45796L7.35179 2.14092H7.90917L8.07281 1.61933ZM11.1819 1.61933L11.3507 2.14092H11.9029L11.458 2.45796L11.6268 2.98467L11.1819 2.66251L10.737 2.98467L10.9058 2.45796L10.466 2.14092H11.0132L11.1819 1.61933ZM-2.80901 2.92842L-2.63514 3.46023H-2.0931L-2.53287 3.78239L-2.36412 4.30398L-2.80901 3.98183L-3.24878 4.30398L-3.08514 3.78239L-3.53003 3.46023H-2.97264L-2.80901 2.92842ZM0.300084 2.92842L0.468834 3.46023H1.02111L0.576221 3.78239L0.739857 4.30398L0.300084 3.98183L-0.144802 4.30398L0.0239477 3.77728L-0.415825 3.45512H0.12622L0.300084 2.92842ZM3.40917 2.92842L3.57792 3.45512H4.12508L3.68531 3.77728L3.85406 4.29887L3.40917 3.97671L2.96429 4.29887L3.13304 3.77217L2.68815 3.45001H3.24042L3.40917 2.92842ZM6.51827 2.92842L6.68702 3.45512H7.23929L6.7944 3.77728L6.96315 4.29887L6.51827 3.97671L6.07338 4.29887L6.24724 3.77217L5.79724 3.45001H6.3444L6.51827 2.92842ZM9.62736 2.92842L9.79611 3.45512H10.3433L9.90349 3.77728L10.0722 4.29887L9.62736 3.97671L9.18247 4.29887L9.35122 3.77217L8.91145 3.45001H9.4586L9.62736 2.92842ZM12.7364 2.92842L12.9052 3.45512H13.4575L13.0075 3.77728L13.1813 4.29887L12.7364 3.97671L12.2916 4.29887L12.4654 3.77217L12.0154 3.45001H12.5677L12.7364 2.92842ZM-1.25446 4.25796L-1.08571 4.77955H-0.528325L-0.973211 5.10171L-0.804461 5.62842L-1.24935 5.30114L-1.69423 5.6233L-1.52548 5.10171L-1.96526 4.77955H-1.4181L-1.25446 4.25796ZM1.85463 4.25796L2.02849 4.77955H2.57565L2.12565 5.10171L2.29952 5.62842L1.85463 5.30114L1.40974 5.6233L1.57849 5.10171L1.13361 4.77955H1.68588L1.85463 4.25796ZM4.96372 4.25796L5.13247 4.77955H5.68474L5.23986 5.10171L5.40861 5.62842L4.96372 5.30114L4.51883 5.6233L4.68758 5.10171L4.24781 4.77955H4.78986L4.96372 4.25796ZM8.07281 4.25796L8.24667 4.77955H8.79383L8.34895 5.10171L8.5177 5.62842L8.07281 5.30114L7.63304 5.6233L7.79667 5.10171L7.35179 4.77955H7.90917L8.07281 4.25796ZM11.1819 4.25796L11.3507 4.77955H11.9029L11.458 5.10171L11.6268 5.62842L11.1819 5.30114L10.737 5.6233L10.9058 5.10171L10.466 4.77955H11.0132L11.1819 4.25796ZM-2.80901 5.58239L-2.63514 6.10398H-2.0931L-2.53287 6.42614L-2.36412 6.95285L-2.80901 6.62558L-3.24878 6.94773L-3.08514 6.42614L-3.53003 6.10398H-2.97264L-2.80901 5.58239ZM0.300084 5.58239L0.468834 6.10398H1.02111L0.576221 6.42614L0.739857 6.94773L0.300084 6.62558L-0.144802 6.94773L0.0239477 6.42614L-0.415825 6.10398H0.12622L0.300084 5.58239ZM3.40917 5.58239L3.57792 6.10398H4.12508L3.68531 6.42614L3.85406 6.95285L3.40917 6.62558L2.96429 6.94773L3.13304 6.42614L2.68815 6.10398H3.24042L3.40917 5.58239ZM6.51827 5.58239L6.68702 6.10398H7.23929L6.7944 6.42614L6.96315 6.95285L6.51827 6.62558L6.07338 6.94773L6.24724 6.42614L5.79724 6.10398H6.3444L6.51827 5.58239ZM9.62736 5.58239L9.79611 6.10398H10.3433L9.90349 6.42614L10.0722 6.95285L9.62736 6.62558L9.18247 6.94773L9.35122 6.42614L8.91145 6.10398H9.4586L9.62736 5.58239ZM12.7364 5.58239L12.9052 6.10398H13.4575L13.0075 6.42614L13.1813 6.95285L12.7364 6.62558L12.2916 6.94773L12.4603 6.42614L12.0103 6.10398H12.5626L12.7364 5.58239ZM-1.25446 6.90171L-1.08571 7.42842H-0.528325L-0.973211 7.74546L-0.804461 8.27217L-1.24935 7.94489L-1.69423 8.27217L-1.52548 7.74546L-1.96526 7.4233H-1.4181L-1.25446 6.90171ZM1.85463 6.90171L2.02849 7.42842H2.57565L2.12565 7.74546L2.29952 8.27217L1.85463 7.94489L1.40974 8.27217L1.57849 7.74546L1.13361 7.4233H1.68588L1.85463 6.90171ZM4.96372 6.90171L5.13247 7.42842H5.68474L5.23986 7.74546L5.40861 8.27217L4.96372 7.94489L4.51883 8.27217L4.68758 7.74546L4.24781 7.4233H4.78986L4.96372 6.90171ZM8.07281 6.90171L8.24667 7.42842H8.79383L8.34895 7.74546L8.5177 8.27217L8.07281 7.94489L7.63304 8.27217L7.79667 7.74546L7.35179 7.4233H7.90917L8.07281 6.90171ZM11.1819 6.90171L11.3507 7.42842H11.9029L11.458 7.74546L11.6268 8.27217L11.1819 7.94489L10.737 8.27217L10.9058 7.74546L10.466 7.4233H11.0132L11.1819 6.90171ZM-2.80901 8.22103L-2.63514 8.74773H-2.0931L-2.53287 9.06989L-2.36412 9.58637L-2.80901 9.26933L-3.24878 9.58637L-3.08514 9.06478L-3.53003 8.74262H-2.97264L-2.80901 8.22103ZM0.300084 8.22103L0.468834 8.74773H1.02111L0.576221 9.06989L0.744971 9.58637L0.300084 9.26933L-0.144802 9.58637L0.0290616 9.06478L-0.415825 8.74262H0.12622L0.300084 8.22103ZM3.40917 8.22103L3.57792 8.74773H4.12508L3.68531 9.06989L3.85406 9.58637L3.40917 9.26933L2.96429 9.58637L3.13304 9.06478L2.68815 8.74262H3.24042L3.40917 8.22103ZM6.51827 8.22103L6.68702 8.74773H7.23929L6.7944 9.06989L6.96315 9.58637L6.51827 9.26933L6.07338 9.58637L6.24724 9.06478L5.79724 8.74262H6.3444L6.51827 8.22103ZM9.62736 8.22103L9.79611 8.74773H10.3433L9.90349 9.06989L10.0722 9.58637L9.62736 9.26933L9.18247 9.58637L9.35122 9.06478L8.91145 8.74262H9.4586L9.62736 8.22103ZM12.7364 8.22103L12.9052 8.74773H13.4575L13.0075 9.06989L13.1813 9.58637L12.7364 9.26933L12.2916 9.58637L12.4654 9.06478L12.0154 8.74262H12.5677L12.7364 8.22103ZM-1.25446 9.54546L-1.08571 10.0671H-0.528325L-0.973211 10.3892L-0.804461 10.9159L-1.24935 10.5886L-1.69423 10.9108L-1.52548 10.3892L-1.96526 10.0671H-1.4181L-1.25446 9.54546ZM1.85463 9.54546L2.02849 10.0671H2.57565L2.12565 10.3892L2.29952 10.9159L1.85463 10.5886L1.40974 10.9108L1.57849 10.3892L1.13361 10.0671H1.68588L1.85463 9.54546ZM4.96372 9.54546L5.13247 10.0671H5.68474L5.23986 10.3892L5.40861 10.9159L4.96372 10.5886L4.51883 10.9108L4.68758 10.3892L4.24781 10.0671H4.78986L4.96372 9.54546ZM8.07281 9.54546L8.24667 10.0671H8.79383L8.34895 10.3892L8.5177 10.9159L8.07281 10.5886L7.63304 10.9108L7.79667 10.3892L7.35179 10.0671H7.90917L8.07281 9.54546ZM11.1819 9.54546L11.3507 10.0671H11.9029L11.458 10.3892L11.6268 10.9159L11.1819 10.5886L10.737 10.9108L10.9058 10.3892L10.466 10.0671H11.0132L11.1819 9.54546ZM-2.80901 10.8699L-2.63514 11.3915H-2.0931L-2.53287 11.7136L-2.36412 12.2352L-2.80901 11.9131L-3.24878 12.2352L-3.08514 11.7085L-3.53003 11.3864H-2.97264L-2.80901 10.8699ZM0.300084 10.8699L0.468834 11.3915H1.02111L0.576221 11.7136L0.744971 12.2352L0.300084 11.9131L-0.144802 12.2352L0.0290616 11.7085L-0.415825 11.3864H0.12622L0.300084 10.8699ZM3.40917 10.8699L3.57792 11.3915H4.12508L3.69554 11.7136L3.86429 12.2352L3.4194 11.9131L2.97452 12.2352L3.14327 11.7085L2.69838 11.3864H3.25065L3.40917 10.8699ZM6.51827 10.8699L6.68702 11.3915H7.23929L6.7944 11.7136L6.96315 12.2352L6.51827 11.9131L6.07338 12.2352L6.24724 11.7085L5.79724 11.3864H6.3444L6.51827 10.8699ZM9.62736 10.8699L9.79611 11.3915H10.3433L9.90349 11.7136L10.0722 12.2352L9.62736 11.9131L9.18247 12.2352L9.35122 11.7085L8.91145 11.3864H9.4586L9.62736 10.8699ZM12.7364 10.8699L12.9052 11.3915H13.4575L13.0075 11.7136L13.1813 12.2352L12.7364 11.9131L12.2916 12.2352L12.4654 11.7085L12.0154 11.3864H12.5677L12.7364 10.8699Z" fill="white"/>
</g>
</g>
<defs>
<clipPath id="clip0_1_1748">
<rect width="24" height="24" rx="12" fill="white"/>
</clipPath>
<clipPath id="clip1_1_1748">
<rect width="32.7273" height="24.5455" fill="white" transform="translate(-4.36353 -0.27272)"/>
</clipPath>
</defs>
</svg>
