<svg viewBox="0 0 48 48" fill="none" xmlns="http://www.w3.org/2000/svg">
<path d="M43.9999 33.8402V39.8402C44.0021 40.3972 43.888 40.9485 43.6649 41.4589C43.4417 41.9692 43.1145 42.4274 42.704 42.8039C42.2936 43.1805 41.809 43.4672 41.2814 43.6456C40.7537 43.8241 40.1946 43.8903 39.6399 43.8402C33.4855 43.1715 27.5739 41.0685 22.3799 37.7002C17.5475 34.6295 13.4505 30.5325 10.3799 25.7002C6.99982 20.4826 4.89635 14.5422 4.23987 8.36019C4.18989 7.80713 4.25562 7.24971 4.43287 6.72344C4.61012 6.19717 4.89501 5.71357 5.2694 5.30344C5.64379 4.8933 6.09948 4.56561 6.60745 4.34124C7.11542 4.11686 7.66455 4.00072 8.21987 4.00019H14.2199C15.1905 3.99064 16.1314 4.33435 16.8674 4.96726C17.6033 5.60017 18.084 6.47909 18.2199 7.44019C18.4731 9.36033 18.9428 11.2456 19.6199 13.0602C19.889 13.776 19.9472 14.554 19.7877 15.302C19.6282 16.0499 19.2576 16.7364 18.7199 17.2802L16.1799 19.8202C19.027 24.8273 23.1728 28.9731 28.1799 31.8202L30.7199 29.2802C31.2636 28.7425 31.9502 28.3719 32.6981 28.2124C33.446 28.0529 34.224 28.1111 34.9399 28.3802C36.7544 29.0573 38.6397 29.5269 40.5599 29.7802C41.5314 29.9173 42.4187 30.4066 43.0529 31.1552C43.6872 31.9038 44.0242 32.8593 43.9999 33.8402Z" stroke="#D9D9D9" stroke-width="4" stroke-linecap="round" stroke-linejoin="round"/>
</svg>
